<svg xmlns="http://www.w3.org/2000/svg" width="256" height="82.564" viewBox="0 0 256 82.564">
  <g id="Grupo_367" data-name="Grupo 367" transform="translate(-35.145 -114.5)">
    <path id="Trazado_2662" data-name="Trazado 2662" d="M71.6,193.835a21.472,21.472,0,0,0,1.413,14.957,21.506,21.506,0,0,0,7.289-27.2,21.415,21.415,0,0,0-8.7,12.245" transform="translate(-10.207 -19.172)" fill="#656565"/>
    <path id="Trazado_2663" data-name="Trazado 2663" d="M91.537,181.591a21.548,21.548,0,0,0,7.29,27.2,21.5,21.5,0,0,0-7.29-27.2" transform="translate(-15.499 -19.172)" fill="#656565"/>
    <path id="Trazado_2664" data-name="Trazado 2664" d="M100.259,129.476a21.5,21.5,0,0,0-1.418-14.964,21.527,21.527,0,0,0-7.29,27.214,21.559,21.559,0,0,0,8.709-12.251" transform="translate(-15.501 -0.003)" fill="#656565"/>
    <path id="Trazado_2665" data-name="Trazado 2665" d="M73.023,114.5A21.566,21.566,0,0,0,80.3,141.723,21.54,21.54,0,0,0,73.023,114.5" transform="translate(-10.207)" fill="#656565"/>
    <path id="Trazado_2666" data-name="Trazado 2666" d="M47.391,160.575a21.451,21.451,0,0,0,14.972-1.421,21.551,21.551,0,0,0-27.217-7.292,21.43,21.43,0,0,0,12.246,8.713" transform="translate(0 -10.06)" fill="#656565"/>
    <path id="Trazado_2667" data-name="Trazado 2667" d="M47.391,168.964a21.461,21.461,0,0,0-12.246,8.714,21.535,21.535,0,0,0,27.217-7.294,21.514,21.514,0,0,0-14.972-1.42" transform="translate(0 -15.353)" fill="#656565"/>
    <path id="Trazado_2668" data-name="Trazado 2668" d="M118.208,168.97a21.441,21.441,0,0,0-14.963,1.423,21.548,21.548,0,0,0,27.217,7.289,21.481,21.481,0,0,0-12.254-8.713" transform="translate(-19.461 -15.355)" fill="#656565"/>
    <path id="Trazado_2669" data-name="Trazado 2669" d="M118.208,160.581a21.463,21.463,0,0,0,12.254-8.712,21.552,21.552,0,0,0-27.217,7.286,21.458,21.458,0,0,0,14.963,1.426" transform="translate(-19.461 -10.062)" fill="#656565"/>
    <path id="Trazado_2670" data-name="Trazado 2670" d="M74.315,148.422c2.043,2.076,2.675,5.19,2.87,7.9-2.678-.193-5.872-.788-7.919-2.863s-2.672-5.186-2.869-7.894c2.672.2,5.862.784,7.919,2.861" transform="translate(-8.931 -8.876)" fill="#656565"/>
    <path id="Trazado_2671" data-name="Trazado 2671" d="M97.87,148.422c-2.048,2.076-2.677,5.19-2.868,7.9,2.686-.193,5.87-.788,7.92-2.863s2.675-5.186,2.861-7.894c-2.671.2-5.865.784-7.912,2.861" transform="translate(-17.105 -8.876)" fill="#656565"/>
    <path id="Trazado_2672" data-name="Trazado 2672" d="M97.867,181.46c-2.048-2.076-2.677-5.189-2.876-7.9,2.694.2,5.877.79,7.918,2.868s2.685,5.182,2.87,7.9c-2.671-.2-5.865-.789-7.912-2.864" transform="translate(-17.102 -16.877)" fill="#656565"/>
    <path id="Trazado_2673" data-name="Trazado 2673" d="M74.313,181.46c2.043-2.076,2.667-5.189,2.87-7.9-2.678.2-5.872.79-7.919,2.868s-2.672,5.182-2.873,7.9c2.676-.2,5.866-.789,7.922-2.864" transform="translate(-8.929 -16.877)" fill="#656565"/>
    <path id="Trazado_2674" data-name="Trazado 2674" d="M164.817,126.575a.71.71,0,0,0-.264.275.968.968,0,0,0-.125.514v6.951a.863.863,0,0,0,.144.549,1.272,1.272,0,0,0,.222.243h-2.052c.037-.039.08-.075.119-.109a.587.587,0,0,0,.122-.134.62.62,0,0,0,.091-.21,1.286,1.286,0,0,0,.035-.339v-3.335c-.381-.04-.756-.061-1.123-.069s-.739-.013-1.113-.013-.76.007-1.134.018-.751.036-1.122.075v3.325a.924.924,0,0,0,.131.528.891.891,0,0,0,.246.264h-2.064a1.1,1.1,0,0,0,.24-.247.9.9,0,0,0,.128-.544v-6.951a.876.876,0,0,0-.116-.524,1.581,1.581,0,0,0-.251-.264h2.064a.692.692,0,0,0-.269.293,1.016,1.016,0,0,0-.108.5v2.96c.366.037.731.06,1.094.064s.729,0,1.1,0h1.151a9.877,9.877,0,0,0,1.153-.069v-2.96a.956.956,0,0,0-.1-.5,1.144,1.144,0,0,0-.262-.293Z" transform="translate(-34.802 -3.451)" fill="#656565"/>
    <path id="Trazado_2675" data-name="Trazado 2675" d="M179.032,130.669a4.7,4.7,0,0,1-.363,1.876,4.3,4.3,0,0,1-.991,1.446,4.428,4.428,0,0,1-1.495.933,5.236,5.236,0,0,1-1.888.333,4.774,4.774,0,0,1-1.8-.326,3.9,3.9,0,0,1-2.263-2.316,5.05,5.05,0,0,1-.312-1.808,4.854,4.854,0,0,1,.355-1.89,4.139,4.139,0,0,1,.993-1.446,4.461,4.461,0,0,1,1.508-.922,5.333,5.333,0,0,1,1.893-.328,4.73,4.73,0,0,1,1.793.328,3.957,3.957,0,0,1,1.381.917,4.055,4.055,0,0,1,.884,1.41,5.042,5.042,0,0,1,.31,1.793m-1.491.609a6.819,6.819,0,0,0-.178-1.514,4.972,4.972,0,0,0-.561-1.428,3.257,3.257,0,0,0-1-1.059,2.6,2.6,0,0,0-1.483-.413,2.8,2.8,0,0,0-1.245.264,2.64,2.64,0,0,0-.911.716,3.273,3.273,0,0,0-.563,1.056,4.121,4.121,0,0,0-.195,1.28,7.133,7.133,0,0,0,.172,1.523,4.741,4.741,0,0,0,.556,1.435,3.331,3.331,0,0,0,1,1.058,2.573,2.573,0,0,0,1.5.421,2.78,2.78,0,0,0,1.242-.264,2.577,2.577,0,0,0,.913-.724,3.23,3.23,0,0,0,.561-1.058,4.138,4.138,0,0,0,.2-1.29" transform="translate(-38.513 -3.349)" fill="#656565"/>
    <path id="Trazado_2676" data-name="Trazado 2676" d="M190.161,132.749a2.205,2.205,0,0,1-.294,1.176,2.371,2.371,0,0,1-.757.768,3.2,3.2,0,0,1-1.054.418,5.565,5.565,0,0,1-1.186.127,6.15,6.15,0,0,1-.81-.057,6.939,6.939,0,0,1-.773-.149,3.146,3.146,0,0,1-.614-.224.717.717,0,0,1-.326-.269,1.349,1.349,0,0,1-.109-.494c-.012-.206-.017-.378-.017-.516v-.184a1.569,1.569,0,0,1,.011-.182,3.03,3.03,0,0,0,2.672,1.5,3.468,3.468,0,0,0,.7-.075,2.2,2.2,0,0,0,.659-.241,1.4,1.4,0,0,0,.487-.442,1.173,1.173,0,0,0,.19-.687,1.227,1.227,0,0,0-.161-.625,2.348,2.348,0,0,0-.424-.531,4.307,4.307,0,0,0-.614-.484c-.235-.153-.474-.3-.718-.458-.343-.209-.668-.409-.975-.609a5.863,5.863,0,0,1-.808-.619,2.721,2.721,0,0,1-.556-.691,1.685,1.685,0,0,1-.207-.831,1.874,1.874,0,0,1,.252-1.011,1.906,1.906,0,0,1,.672-.642,3.031,3.031,0,0,1,.956-.344,5.866,5.866,0,0,1,1.112-.1c.153,0,.324,0,.511.021s.379.039.574.071a5.467,5.467,0,0,1,.56.113,2.328,2.328,0,0,1,.478.173l.069,1.159a3.24,3.24,0,0,0-.389-.357,3.371,3.371,0,0,0-.476-.31,2.588,2.588,0,0,0-.569-.219,2.708,2.708,0,0,0-.676-.078,2.36,2.36,0,0,0-1.291.32,1.026,1.026,0,0,0-.5.916,1.071,1.071,0,0,0,.132.528,1.836,1.836,0,0,0,.389.472,4.785,4.785,0,0,0,.624.456c.245.154.524.322.839.506.289.168.577.344.864.526a5.139,5.139,0,0,1,.774.6,2.906,2.906,0,0,1,.559.717,1.777,1.777,0,0,1,.212.859" transform="translate(-42.601 -3.364)" fill="#656565"/>
    <path id="Trazado_2677" data-name="Trazado 2677" d="M200.411,128.719a2,2,0,0,1-.315,1.153,2.464,2.464,0,0,1-.813.752,3.607,3.607,0,0,1-1.113.4,6.241,6.241,0,0,1-1.221.122c-.116,0-.237,0-.361-.006a4.106,4.106,0,0,1-.42-.04v3.21a.966.966,0,0,0,.121.487.922.922,0,0,0,.247.3H194.5a.924.924,0,0,0,.235-.264.906.906,0,0,0,.11-.494v-7.016a.891.891,0,0,0-.114-.494,1.055,1.055,0,0,0-.241-.264h2.983a4.715,4.715,0,0,1,1.013.114,3.2,3.2,0,0,1,.946.366,2.151,2.151,0,0,1,.7.665,1.737,1.737,0,0,1,.276,1m-1.446.046a1.717,1.717,0,0,0-.154-.762,1.415,1.415,0,0,0-.436-.522,1.958,1.958,0,0,0-.664-.3,3.505,3.505,0,0,0-.843-.1c-.092,0-.2,0-.333.018a3.45,3.45,0,0,0-.368.052v3.428a2.84,2.84,0,0,0,.409.057c.117.009.241.012.372.012a2.638,2.638,0,0,0,.791-.115,1.77,1.77,0,0,0,.643-.349,1.615,1.615,0,0,0,.429-.584,2.05,2.05,0,0,0,.154-.834" transform="translate(-45.537 -3.451)" fill="#656565"/>
    <path id="Trazado_2678" data-name="Trazado 2678" d="M206.8,126.575a2.065,2.065,0,0,0-.236.253.838.838,0,0,0-.119.516V134.3a.9.9,0,0,0,.137.568c.092.111.16.189.208.236h-2.043a.945.945,0,0,0,.253-.252.907.907,0,0,0,.126-.539v-6.959a.87.87,0,0,0-.143-.54.936.936,0,0,0-.248-.24Z" transform="translate(-48.464 -3.451)" fill="#656565"/>
    <path id="Trazado_2679" data-name="Trazado 2679" d="M216.648,126.48a2.359,2.359,0,0,1-.572.623,1.033,1.033,0,0,1-.6.192c-.114,0-.286,0-.515-.008s-.457-.009-.687-.018c-.266-.006-.551-.01-.848-.01L213.4,134.3a.894.894,0,0,0,.129.488.977.977,0,0,0,.253.294h-2.055a.84.84,0,0,0,.259-.3,1.026,1.026,0,0,0,.1-.483l.024-7.017h-2.123c-.176,0-.351.009-.526.024a2.063,2.063,0,0,0-.516.114l.366-.871H213.2q.892,0,1.726-.006t1.724-.062" transform="translate(-49.666 -3.424)" fill="#656565"/>
    <path id="Trazado_2680" data-name="Trazado 2680" d="M226.564,135.107a.337.337,0,0,0,.116-.093.187.187,0,0,0,.065-.126,1.818,1.818,0,0,0-.161-.494c-.153-.36-.292-.692-.424-1-.109-.259-.209-.5-.309-.727s-.164-.367-.186-.429a7.769,7.769,0,0,0-.915-.064c-.307,0-.618,0-.929,0s-.636,0-.941.01-.62.026-.941.059c-.017.045-.039.11-.074.194s-.075.185-.12.3-.093.234-.144.362-.1.256-.154.384q-.182.444-.39.963a1.888,1.888,0,0,0-.1.31,1.088,1.088,0,0,0-.008.148.171.171,0,0,0,.06.126.459.459,0,0,0,.12.081H219.8c.06-.061.126-.134.2-.219a1,1,0,0,0,.166-.263l3.063-7.477c.021-.06.044-.117.068-.171a.476.476,0,0,0,.034-.174.209.209,0,0,0-.063-.137.331.331,0,0,0-.122-.091h1.468l3.28,7.786a2.375,2.375,0,0,0,.234.441.882.882,0,0,0,.329.3Zm-2.777-7.349-1.606,3.852a7.867,7.867,0,0,0,.787.051c.255,0,.516.005.784.005s.553,0,.831-.011.556-.024.832-.046Z" transform="translate(-52.768 -3.451)" fill="#656565"/>
    <path id="Trazado_2681" data-name="Trazado 2681" d="M238.769,135.106h-5.813a1.055,1.055,0,0,0,.234-.279.922.922,0,0,0,.11-.491v-6.981a.956.956,0,0,0-.114-.522,1.129,1.129,0,0,0-.24-.258h2.061a1.13,1.13,0,0,0-.264.265.866.866,0,0,0-.124.515v7.087c.221.014.436.024.647.029s.428.006.648.006a11.76,11.76,0,0,0,1.231-.057,5.877,5.877,0,0,0,.884-.156,3.283,3.283,0,0,0,.589-.211,1.276,1.276,0,0,0,.344-.229Z" transform="translate(-56.526 -3.451)" fill="#656565"/>
    <path id="Trazado_2682" data-name="Trazado 2682" d="M253.193,135.106V134a3.532,3.532,0,0,1-.416.46,3.444,3.444,0,0,1-.595.44,3.725,3.725,0,0,1-.76.332,3.021,3.021,0,0,1-.911.131,2.954,2.954,0,0,1-2.225-.812,3.123,3.123,0,0,1-.791-2.269v-4.9a1.088,1.088,0,0,0-.092-.5,1.11,1.11,0,0,0-.251-.311h2.041a1.072,1.072,0,0,0-.246.275.967.967,0,0,0-.131.549v4.555a4.626,4.626,0,0,0,.1.978,2.534,2.534,0,0,0,.335.873,1.936,1.936,0,0,0,.636.623,1.866,1.866,0,0,0,.991.241,2.263,2.263,0,0,0,1.256-.366,2.721,2.721,0,0,0,.9-.951.894.894,0,0,0,.124-.327,1.779,1.779,0,0,0,.035-.36v-5.3a1.557,1.557,0,0,0-.022-.3.8.8,0,0,0-.068-.2.569.569,0,0,0-.116-.15c-.046-.041-.1-.089-.149-.143h2.053a.866.866,0,0,0-.271.281,1,1,0,0,0-.107.509v6.857a1.51,1.51,0,0,0,.073.495.931.931,0,0,0,.306.389Z" transform="translate(-60.585 -3.451)" fill="#656565"/>
    <path id="Trazado_2683" data-name="Trazado 2683" d="M267.968,126.575a.8.8,0,0,0-.249.24.952.952,0,0,0-.129.54v7.751h-.378l-5.952-6.939v6.1a1.147,1.147,0,0,0,.11.506.756.756,0,0,0,.267.332H260.1c.046-.046.09-.093.14-.138a.7.7,0,0,0,.112-.156.779.779,0,0,0,.076-.21,1.8,1.8,0,0,0,.028-.334v-6.913a.842.842,0,0,0-.131-.534,2.681,2.681,0,0,0-.238-.246H261.5l5.286,6.18v-5.4a.934.934,0,0,0-.1-.494,1.5,1.5,0,0,0-.246-.286Z" transform="translate(-64.282 -3.451)" fill="#656565"/>
    <path id="Trazado_2684" data-name="Trazado 2684" d="M275.352,126.575a1.951,1.951,0,0,0-.234.253.825.825,0,0,0-.124.516V134.3a.9.9,0,0,0,.139.568c.093.111.161.189.206.236H273.3a.963.963,0,0,0,.251-.252.913.913,0,0,0,.125-.539v-6.959a.88.88,0,0,0-.141-.54,1.071,1.071,0,0,0-.246-.24Z" transform="translate(-68.054 -3.451)" fill="#656565"/>
    <path id="Trazado_2685" data-name="Trazado 2685" d="M284.776,126.575a1.455,1.455,0,0,0-.223.224,1.67,1.67,0,0,0-.246.476l-3.05,7.832h-.311l-3.07-7.854a1.785,1.785,0,0,0-.243-.431,1.341,1.341,0,0,0-.25-.246h1.8a.284.284,0,0,0-.107.253,1.073,1.073,0,0,0,.084.365l2.191,5.587,2.224-5.677a.85.85,0,0,0,.081-.311.293.293,0,0,0-.114-.217Z" transform="translate(-69.224 -3.451)" fill="#656565"/>
    <path id="Trazado_2686" data-name="Trazado 2686" d="M294.6,135.106h-5.733a1.14,1.14,0,0,0,.244-.254.75.75,0,0,0,.122-.469v-7.109a.741.741,0,0,0-.129-.465,1.074,1.074,0,0,0-.248-.235h5.353l.127.79a1.787,1.787,0,0,0-.5-.153,3.2,3.2,0,0,0-.527-.04h-2.754V130.3c.515-.006,1.026-.013,1.538-.015s1.023-.034,1.536-.087l.124.816a1.528,1.528,0,0,0-.5-.15,3.96,3.96,0,0,0-.528-.034h-2.168v3.576c.1.015.25.027.449.04s.395.019.584.024.35.006.473.006h.186c.089,0,.212,0,.363-.006s.331-.012.536-.024.4-.03.606-.057a5.432,5.432,0,0,0,.568-.108,1.707,1.707,0,0,0,.435-.174Z" transform="translate(-72.504 -3.451)" fill="#656565"/>
    <path id="Trazado_2687" data-name="Trazado 2687" d="M306.707,135.083a3.761,3.761,0,0,1-.539.069c-.158.009-.339.013-.539.013-.106,0-.224,0-.355-.013a1.149,1.149,0,0,1-.343-.069,1.193,1.193,0,0,1-.447-.309,5.388,5.388,0,0,1-.493-.579c-.169-.225-.336-.469-.5-.729s-.334-.513-.494-.764-.314-.478-.459-.693a4.433,4.433,0,0,0-.389-.5,1.276,1.276,0,0,0-.357-.268,2.087,2.087,0,0,0-.424-.174,2.464,2.464,0,0,0-.446-.084,4.1,4.1,0,0,0-.437-.024v3.394a.889.889,0,0,0,.139.481.908.908,0,0,0,.231.276h-2.042a.834.834,0,0,0,.251-.294.955.955,0,0,0,.1-.464v-7.017a.878.878,0,0,0-.1-.459,1.1,1.1,0,0,0-.262-.3h2.877a4.968,4.968,0,0,1,1.174.131,2.93,2.93,0,0,1,.952.4,2,2,0,0,1,.641.671,1.812,1.812,0,0,1,.237.939,1.624,1.624,0,0,1-.254.929,2.1,2.1,0,0,1-.625.619,2.991,2.991,0,0,1-.791.363,4.712,4.712,0,0,1-.751.156,1.158,1.158,0,0,1,.776.261,4.491,4.491,0,0,1,.755.74q.373.453.74.993t.736,1.026a8.136,8.136,0,0,0,.725.842,1.547,1.547,0,0,0,.716.436m-3.475-6.387a1.488,1.488,0,0,0-.159-.706,1.454,1.454,0,0,0-.439-.5,2.137,2.137,0,0,0-.653-.3,2.974,2.974,0,0,0-.8-.1c-.1,0-.219,0-.33.006a2.154,2.154,0,0,0-.37.053v3.27c.131.013.256.023.37.026s.229.006.354.006a2.526,2.526,0,0,0,.729-.108,2.086,2.086,0,0,0,.651-.328,1.644,1.644,0,0,0,.471-.544,1.545,1.545,0,0,0,.176-.763" transform="translate(-75.344 -3.451)" fill="#656565"/>
    <path id="Trazado_2688" data-name="Trazado 2688" d="M315.989,132.749a2.211,2.211,0,0,1-.291,1.176,2.4,2.4,0,0,1-.758.768,3.19,3.19,0,0,1-1.056.418,5.525,5.525,0,0,1-1.184.127,6.081,6.081,0,0,1-.809-.057,6.725,6.725,0,0,1-.773-.149,3.1,3.1,0,0,1-.616-.224.725.725,0,0,1-.326-.269,1.348,1.348,0,0,1-.109-.494c-.011-.206-.015-.378-.015-.516v-.184c0-.061,0-.121.007-.182a3.041,3.041,0,0,0,2.677,1.5,3.475,3.475,0,0,0,.7-.075,2.206,2.206,0,0,0,.659-.241,1.424,1.424,0,0,0,.486-.442,1.167,1.167,0,0,0,.189-.687,1.225,1.225,0,0,0-.159-.625,2.272,2.272,0,0,0-.427-.531,4.13,4.13,0,0,0-.611-.484c-.234-.153-.472-.3-.717-.458-.342-.209-.668-.409-.971-.609a5.656,5.656,0,0,1-.811-.619,2.762,2.762,0,0,1-.558-.691,1.715,1.715,0,0,1-.2-.831,1.867,1.867,0,0,1,.254-1.011,1.9,1.9,0,0,1,.669-.642,3.061,3.061,0,0,1,.959-.344,5.874,5.874,0,0,1,1.113-.1c.154,0,.322,0,.51.021s.377.039.575.071a5.518,5.518,0,0,1,.559.113,2.414,2.414,0,0,1,.479.173l.066,1.159a3.033,3.033,0,0,0-.388-.357,3.492,3.492,0,0,0-.476-.31,2.56,2.56,0,0,0-.569-.219,2.72,2.72,0,0,0-.676-.078,2.353,2.353,0,0,0-1.29.32,1.03,1.03,0,0,0-.5.916,1.086,1.086,0,0,0,.132.528,1.839,1.839,0,0,0,.39.472,4.489,4.489,0,0,0,.626.456c.242.154.522.322.836.506.289.168.579.344.864.526a5.117,5.117,0,0,1,.775.6,2.882,2.882,0,0,1,.557.717,1.792,1.792,0,0,1,.211.859" transform="translate(-78.56 -3.364)" fill="#656565"/>
    <path id="Trazado_2689" data-name="Trazado 2689" d="M322.471,126.575a1.784,1.784,0,0,0-.238.253.852.852,0,0,0-.12.516V134.3a.9.9,0,0,0,.137.568c.093.111.16.189.2.236h-2.039a1.012,1.012,0,0,0,.254-.252.93.93,0,0,0,.125-.539v-6.959a.875.875,0,0,0-.144-.54.992.992,0,0,0-.246-.24Z" transform="translate(-81.518 -3.451)" fill="#656565"/>
    <path id="Trazado_2690" data-name="Trazado 2690" d="M332.316,126.48a2.315,2.315,0,0,1-.574.623,1.025,1.025,0,0,1-.6.192c-.113,0-.284,0-.514-.008s-.459-.009-.69-.018q-.4-.01-.848-.01l-.024,7.038a.894.894,0,0,0,.129.488,1,1,0,0,0,.252.294H327.4a.845.845,0,0,0,.258-.3,1.035,1.035,0,0,0,.1-.483l.023-7.017h-2.119c-.176,0-.351.009-.527.024a2.049,2.049,0,0,0-.516.114l.364-.871h3.887c.595,0,1.173,0,1.726-.006s1.129-.026,1.726-.062" transform="translate(-82.721 -3.424)" fill="#656565"/>
    <path id="Trazado_2691" data-name="Trazado 2691" d="M342.227,135.107a.351.351,0,0,0,.122-.093.2.2,0,0,0,.064-.126,1.788,1.788,0,0,0-.162-.494c-.153-.36-.3-.692-.424-1-.106-.259-.21-.5-.309-.727s-.161-.367-.184-.429a7.815,7.815,0,0,0-.917-.064c-.3,0-.617,0-.927,0s-.638,0-.945.01-.617.026-.938.059c-.016.045-.039.11-.076.194s-.076.185-.117.3-.1.234-.144.362l-.157.384c-.121.3-.249.617-.39.963a1.782,1.782,0,0,0-.1.31,1.012,1.012,0,0,0-.011.148.165.165,0,0,0,.063.126.454.454,0,0,0,.119.081h-1.328c.06-.061.128-.134.2-.219a.91.91,0,0,0,.166-.263l3.06-7.477c.025-.06.046-.117.07-.171a.412.412,0,0,0,.036-.174.205.205,0,0,0-.065-.137.321.321,0,0,0-.118-.091h1.468l3.278,7.786a2.388,2.388,0,0,0,.236.441.858.858,0,0,0,.327.3Zm-2.774-7.349-1.607,3.852c.27.031.532.047.788.051s.519.005.786.005.551,0,.833-.011.553-.024.828-.046Z" transform="translate(-85.821 -3.451)" fill="#656565"/>
    <path id="Trazado_2692" data-name="Trazado 2692" d="M356.523,135.083a3.874,3.874,0,0,1-.54.069c-.159.009-.34.013-.539.013-.1,0-.226,0-.358-.013a1.14,1.14,0,0,1-.342-.069,1.2,1.2,0,0,1-.447-.309,5.555,5.555,0,0,1-.5-.579c-.166-.225-.332-.469-.5-.729s-.333-.513-.492-.764-.315-.478-.462-.693a4.218,4.218,0,0,0-.387-.5,1.331,1.331,0,0,0-.355-.268,2.18,2.18,0,0,0-.425-.174,2.476,2.476,0,0,0-.451-.084,4.029,4.029,0,0,0-.433-.024v3.394a.9.9,0,0,0,.136.481.939.939,0,0,0,.232.276h-2.042a.852.852,0,0,0,.253-.294.955.955,0,0,0,.105-.464v-7.017a.877.877,0,0,0-.105-.459,1.065,1.065,0,0,0-.265-.3h2.881a5,5,0,0,1,1.174.131,2.934,2.934,0,0,1,.949.4,2.029,2.029,0,0,1,.644.671,1.832,1.832,0,0,1,.236.939,1.634,1.634,0,0,1-.253.929,2.1,2.1,0,0,1-.626.619,2.973,2.973,0,0,1-.791.363,4.626,4.626,0,0,1-.751.156,1.158,1.158,0,0,1,.775.261,4.447,4.447,0,0,1,.758.74c.246.3.494.633.739.993s.491.7.734,1.026a7.972,7.972,0,0,0,.726.842,1.541,1.541,0,0,0,.721.436m-3.478-6.387a1.48,1.48,0,0,0-.159-.706,1.435,1.435,0,0,0-.438-.5,2.155,2.155,0,0,0-.659-.3,2.945,2.945,0,0,0-.794-.1c-.109,0-.221,0-.334.006a2.064,2.064,0,0,0-.368.053v3.27c.13.013.25.023.368.026s.231.006.354.006a2.536,2.536,0,0,0,.729-.108A2.067,2.067,0,0,0,352.4,130a1.617,1.617,0,0,0,.47-.544,1.546,1.546,0,0,0,.178-.763" transform="translate(-89.578 -3.451)" fill="#656565"/>
    <path id="Trazado_2693" data-name="Trazado 2693" d="M362.411,126.575a1.917,1.917,0,0,0-.237.253.843.843,0,0,0-.119.516V134.3a.921.921,0,0,0,.135.568c.094.111.161.189.208.236h-2.042a1.012,1.012,0,0,0,.254-.252.93.93,0,0,0,.125-.539v-6.959a.875.875,0,0,0-.143-.54.981.981,0,0,0-.247-.24Z" transform="translate(-92.932 -3.451)" fill="#656565"/>
    <path id="Trazado_2694" data-name="Trazado 2694" d="M374.375,130.669a4.746,4.746,0,0,1-.36,1.876,4.3,4.3,0,0,1-2.49,2.378,5.211,5.211,0,0,1-1.888.333,4.771,4.771,0,0,1-1.8-.326,4.016,4.016,0,0,1-1.383-.911,4.069,4.069,0,0,1-.883-1.4,5.1,5.1,0,0,1-.308-1.808,4.789,4.789,0,0,1,.355-1.89,4.2,4.2,0,0,1,.991-1.446,4.478,4.478,0,0,1,1.51-.922,5.318,5.318,0,0,1,1.891-.328,4.743,4.743,0,0,1,1.795.328,3.932,3.932,0,0,1,2.263,2.327,5.027,5.027,0,0,1,.311,1.793m-1.491.609a6.58,6.58,0,0,0-.18-1.514,4.928,4.928,0,0,0-.56-1.428,3.229,3.229,0,0,0-1-1.059,2.6,2.6,0,0,0-1.486-.413,2.788,2.788,0,0,0-1.239.264,2.654,2.654,0,0,0-.913.716,3.176,3.176,0,0,0-.561,1.056,4.039,4.039,0,0,0-.2,1.28,7.008,7.008,0,0,0,.175,1.523,4.681,4.681,0,0,0,.554,1.435,3.325,3.325,0,0,0,1,1.058,2.565,2.565,0,0,0,1.495.421,2.788,2.788,0,0,0,1.243-.264,2.6,2.6,0,0,0,.912-.724,3.314,3.314,0,0,0,.562-1.058,4.18,4.18,0,0,0,.2-1.29" transform="translate(-94.336 -3.349)" fill="#656565"/>
    <path id="Trazado_2695" data-name="Trazado 2695" d="M173.96,174.035a.712.712,0,0,0,.511-.623,2.307,2.307,0,0,0-.254-1.071L171.66,166.4c-.7-.059-1.463-.1-2.282-.125s-1.579-.031-2.284-.031c-.744,0-1.516.009-2.314.031s-1.583.066-2.348.125l-2.171,5.3a5.987,5.987,0,0,0-.479,1.533.9.9,0,0,0,.479.8h-4.408a4.287,4.287,0,0,0,1.566-2.108l7.567-18.936a8.38,8.38,0,0,0,.368-1.021,2.248,2.248,0,0,0,.079-.446,1.748,1.748,0,0,0-.24-.722.9.9,0,0,0-.686-.527h5.11l9.1,21.623a6.148,6.148,0,0,0,.8,1.406,2.185,2.185,0,0,0,.862.732Zm-7.026-18.97-3.64,9.136c.618.04,1.233.071,1.852.093s1.214.035,1.788.035c.556,0,1.176-.012,1.87-.035s1.335-.053,1.931-.093Z" transform="translate(-34.494 -10.223)" fill="#656565"/>
    <path id="Trazado_2696" data-name="Trazado 2696" d="M207.969,174.037l-.032-2.11a8.792,8.792,0,0,1-3.064,2.143,9.4,9.4,0,0,1-3.643.731,10.079,10.079,0,0,1-3.623-.6,7.165,7.165,0,0,1-2.669-1.757,7.58,7.58,0,0,1-1.644-2.78,11.214,11.214,0,0,1-.559-3.642V152.606a3.165,3.165,0,0,0-.271-1.5,2.673,2.673,0,0,0-.751-.832h6.707a2.4,2.4,0,0,0-.774.8,2.983,2.983,0,0,0-.312,1.531V164.68a17.554,17.554,0,0,0,.192,2.586,7.084,7.084,0,0,0,.74,2.332,4.323,4.323,0,0,0,4.112,2.329,5.592,5.592,0,0,0,2.248-.445,6.275,6.275,0,0,0,1.769-1.136,5.3,5.3,0,0,0,1.157-1.516,3.6,3.6,0,0,0,.416-1.626V152.638a4.72,4.72,0,0,0-.034-.541,3.073,3.073,0,0,0-.131-.6,2.145,2.145,0,0,0-.313-.625,2.888,2.888,0,0,0-.577-.592h6.644a1.824,1.824,0,0,0-.813,1.055,4.671,4.671,0,0,0-.176,1.246v19.033a4.7,4.7,0,0,0,.206,1.421,1.73,1.73,0,0,0,.813,1.006Z" transform="translate(-44.742 -10.223)" fill="#656565"/>
    <path id="Trazado_2697" data-name="Trazado 2697" d="M242.67,167.216a6.489,6.489,0,0,1-2.747,5.525,8.7,8.7,0,0,1-2.841,1.321,12.476,12.476,0,0,1-3.289.432c-.491,0-1.092-.029-1.8-.091a19.308,19.308,0,0,1-2.138-.324,12.83,12.83,0,0,1-2.029-.589,3.668,3.668,0,0,1-1.47-.943,1.875,1.875,0,0,1-.271-.845,10.692,10.692,0,0,1-.094-1.295q-.021-.7,0-1.389c.008-.453.022-.822.046-1.1a13.338,13.338,0,0,0,1.533,1.853,9.4,9.4,0,0,0,1.707,1.358,6.955,6.955,0,0,0,1.981.827,9.23,9.23,0,0,0,2.348.276,7.807,7.807,0,0,0,1.74-.194,4.709,4.709,0,0,0,1.517-.62,3.309,3.309,0,0,0,1.071-1.136,3.393,3.393,0,0,0,.4-1.691,3.56,3.56,0,0,0-.846-2.269,12.993,12.993,0,0,0-2.141-2.058q-1.294-1.007-2.777-2.013a31.356,31.356,0,0,1-2.779-2.106,11.831,11.831,0,0,1-2.142-2.348,5.081,5.081,0,0,1-.061-5.525,6.014,6.014,0,0,1,1.994-1.8,8.914,8.914,0,0,1,2.683-.973,14.753,14.753,0,0,1,2.845-.289c.445,0,.946.027,1.5.079s1.111.13,1.676.226,1.107.212,1.631.352a6.966,6.966,0,0,1,1.29.462l.353,3.832a7.413,7.413,0,0,0-2.572-1.9,8.389,8.389,0,0,0-3.655-.783,8.251,8.251,0,0,0-1.421.128,4.473,4.473,0,0,0-1.294.431,2.625,2.625,0,0,0-.943.831,2.215,2.215,0,0,0-.366,1.293,3.025,3.025,0,0,0,.844,2.061,12.638,12.638,0,0,0,2.107,1.835c.843.6,1.752,1.2,2.734,1.806a22.109,22.109,0,0,1,2.728,2,11.1,11.1,0,0,1,2.11,2.4,5.369,5.369,0,0,1,.844,2.97" transform="translate(-54.533 -9.917)" fill="#656565"/>
    <path id="Trazado_2698" data-name="Trazado 2698" d="M274,149.965a7.735,7.735,0,0,1-1.66,1.916,6.44,6.44,0,0,1-1.021.684,1.962,1.962,0,0,1-.895.273c-.126,0-.441,0-.941-.018s-1.053-.017-1.646-.031-1.171-.019-1.725-.031-.937-.016-1.146-.016v18.843a3.721,3.721,0,0,0,.237,1.356,2.1,2.1,0,0,0,.811,1.007h-6.672a2.084,2.084,0,0,0,.828-1.024,3.958,3.958,0,0,0,.192-1.275V152.743h-6.131a8.851,8.851,0,0,0-1.484.128,4.391,4.391,0,0,0-1.391.479l1.056-3.163H268.99q1.246,0,2.508-.078c.839-.054,1.678-.1,2.506-.144" transform="translate(-61.788 -10.135)" fill="#656565"/>
    <path id="Trazado_2699" data-name="Trazado 2699" d="M308.727,174.044c-1.152-.009-4.16-.007-5.009-.007a4.555,4.555,0,0,1-2.765-.661,11.932,11.932,0,0,1-1.842-2.149q-1.375-1.857-3.643-5.588a8.066,8.066,0,0,0-.788-1.151,4.29,4.29,0,0,0-.9-.814,3.631,3.631,0,0,0-1.126-.495,5.964,5.964,0,0,0-1.464-.16v8.719a3.167,3.167,0,0,0,.264,1.261,2.446,2.446,0,0,0,.82,1.036h-6.7a2.362,2.362,0,0,0,1.022-1.981V152.575a3.985,3.985,0,0,0-.192-1.291,2.1,2.1,0,0,0-.83-1.01h8.5a14.627,14.627,0,0,1,3.256.352A8.738,8.738,0,0,1,300,151.7a5.445,5.445,0,0,1,1.8,1.8,4.815,4.815,0,0,1,.654,2.525,4.274,4.274,0,0,1-.654,2.378,6.133,6.133,0,0,1-1.676,1.708,9.494,9.494,0,0,1-2.252,1.136,14.63,14.63,0,0,1-2.348.621,3.284,3.284,0,0,1,1.978.529,8.8,8.8,0,0,1,1.868,1.578,21.224,21.224,0,0,1,1.789,2.253q.881,1.262,1.741,2.569a23.789,23.789,0,0,0,1.453,1.981,12.238,12.238,0,0,0,1.343,1.406c.436.382,2.276,1.856,3.022,1.86m-11.148-17.573a3.774,3.774,0,0,0-.451-1.9,3.6,3.6,0,0,0-1.2-1.259,5.519,5.519,0,0,0-1.7-.7,8.544,8.544,0,0,0-1.975-.221,6.088,6.088,0,0,0-1.059.1v8.463a7.282,7.282,0,0,0,1.188.094,6.12,6.12,0,0,0,1.893-.3,5.436,5.436,0,0,0,1.666-.878,4.322,4.322,0,0,0,1.191-1.44,4.145,4.145,0,0,0,.451-1.947" transform="translate(-71.563 -10.223)" fill="#656565"/>
    <path id="Trazado_2700" data-name="Trazado 2700" d="M334.885,174.035a.717.717,0,0,0,.513-.623,2.32,2.32,0,0,0-.258-1.071l-2.555-5.941c-.7-.059-1.462-.1-2.283-.125s-1.577-.031-2.284-.031c-.746,0-1.516.009-2.314.031s-1.579.066-2.348.125l-2.171,5.3a5.878,5.878,0,0,0-.478,1.533.892.892,0,0,0,.478.8h-4.407a4.291,4.291,0,0,0,1.565-2.108l7.569-18.936a8.567,8.567,0,0,0,.366-1.021,2.266,2.266,0,0,0,.08-.446,1.766,1.766,0,0,0-.239-.722.9.9,0,0,0-.687-.527h5.11l9.1,21.623a6.4,6.4,0,0,0,.8,1.406,2.221,2.221,0,0,0,.863.732Zm-7.025-18.97-3.642,9.136q.926.06,1.854.093t1.788.035c.554,0,1.176-.012,1.868-.035s1.336-.053,1.932-.093Z" transform="translate(-80.482 -10.223)" fill="#656565"/>
    <path id="Trazado_2701" data-name="Trazado 2701" d="M370.172,174.037H353.148a2.925,2.925,0,0,0,.754-.944,3.223,3.223,0,0,0,.2-1.292V152.576a4.239,4.239,0,0,0-.158-1.214,2.267,2.267,0,0,0-.859-1.087h6.64a1.937,1.937,0,0,0-.847,1.069,4.632,4.632,0,0,0-.174,1.232v19.033q.8.1,1.883.146c.725.026,1.322.046,1.788.046q1.088,0,2.2-.02c.747-.009,1.481-.049,2.2-.124a18.542,18.542,0,0,0,2.108-.335,8.523,8.523,0,0,0,1.886-.639Z" transform="translate(-90.858 -10.223)" fill="#656565"/>
    <path id="Trazado_2702" data-name="Trazado 2702" d="M221.267,213.278c.264.017.526.028.79.037s.517.014.761.014.5-.005.794-.014.57-.02.822-.037l-1.616-3.721Z" transform="translate(-53.188 -27.164)" fill="#656565"/>
    <path id="Trazado_2703" data-name="Trazado 2703" d="M198.436,208.942a1.435,1.435,0,0,0-.448-.53,2.164,2.164,0,0,0-.7-.321,3.976,3.976,0,0,0-.922-.1c-.1,0-.218.009-.362.021-.1.008-.189.019-.276.033v3.587a2.864,2.864,0,0,0,.317.04c.129.006.266.01.414.01a2.8,2.8,0,0,0,.853-.12,1.852,1.852,0,0,0,.677-.36,1.662,1.662,0,0,0,.447-.6,2.149,2.149,0,0,0,.161-.871h0a1.774,1.774,0,0,0-.157-.786" transform="translate(-45.889 -26.716)" fill="#656565"/>
    <path id="Trazado_2704" data-name="Trazado 2704" d="M299.724,213.278c.263.017.526.028.791.037s.516.014.761.014.5-.005.794-.014.571-.02.823-.037l-1.616-3.721Z" transform="translate(-75.608 -27.164)" fill="#656565"/>
    <path id="Trazado_2705" data-name="Trazado 2705" d="M256.481,216.114a14.283,14.283,0,0,0,1.427-.065,3.57,3.57,0,0,0,.761-.144,2.909,2.909,0,0,0,1.18-.772,3.212,3.212,0,0,0,.626-1.091,4.016,4.016,0,0,0,.222-1.346,6.565,6.565,0,0,0-.206-1.607,4.965,4.965,0,0,0-.633-1.5,3.5,3.5,0,0,0-1.121-1.094,2.6,2.6,0,0,0-.893-.344c-.388-.039-.84-.059-1.363-.059-.258,0-.511,0-.759.007-.2.006-.4.012-.415.018v7.972c.024.009.221.017.415.024.248,0,.5.006.759.006" transform="translate(-62.915 -26.744)" fill="#656565"/>
    <path id="Trazado_2706" data-name="Trazado 2706" d="M200.3,197.179c-36.732,0-52.546,23.511-52.546,23.511H270.6c38.489.221,52.727-23.511,52.727-23.511Zm-13.83,10.8a3.015,3.015,0,0,1-.979.9,4.371,4.371,0,0,1-1.321.472,7.5,7.5,0,0,1-1.42.138c-.136,0-.276,0-.417-.006a2.61,2.61,0,0,1-.3-.019v3.529a1.31,1.31,0,0,0,.411.95h-2.666a1.31,1.31,0,0,0,.411-.95v-8.02a1.307,1.307,0,0,0-.411-.949h3.573a5.545,5.545,0,0,1,1.187.132,3.718,3.718,0,0,1,1.125.427,2.654,2.654,0,0,1,.85.8,2.1,2.1,0,0,1,.343,1.216,2.4,2.4,0,0,1-.388,1.387m9.424,5.962h-7.442a1.318,1.318,0,0,0,.411-.95v-8.022a1.32,1.32,0,0,0-.35-.887c-.024-.021-.046-.041-.071-.061h2.785a.068.068,0,0,0-.014.011,1.267,1.267,0,0,0-.362.636,1.331,1.331,0,0,0-.028.369v7.892c.224.027.486.047.791.061s.546.02.74.02c.3,0,.6,0,.909-.008s.623-.024.926-.054.6-.082.883-.14c.073-.014.127-.025.184-.038.192-.049.406-.111.7-.183.053-.016.1-.027.16-.047v.009l.031-.009Zm8.908,0a.3.3,0,0,0,.219-.26.947.947,0,0,0-.109-.444l-1.087-2.48c-.3-.027-.623-.048-.972-.054s-.67-.014-.973-.014-.646,0-.985.014-.672.027-1,.054l-.922,2.211a2.551,2.551,0,0,0-.2.64.373.373,0,0,0,.2.334h-1.876a1.792,1.792,0,0,0,.667-.879l3.22-7.905a3.383,3.383,0,0,0,.157-.429.918.918,0,0,0,.034-.184.707.707,0,0,0-.1-.3.381.381,0,0,0-.291-.222H202.9l3.874,9.026c.152.233.265.429.391.589a.919.919,0,0,0,.369.3Zm12.711-8.781v8.778h-.667l-6.552-7.541v6.439l0,.018v.134a1.313,1.313,0,0,0,.411.95h-2.051a1.315,1.315,0,0,0,.411-.95v-.136a.082.082,0,0,1,0-.016v-7.779c0-.017,0-.033,0-.049v-.04a1.571,1.571,0,0,0-.045-.324,1.241,1.241,0,0,0-.1-.258v-.005a1.309,1.309,0,0,0-.269-.361h1.828l5.792,6.682v-5.644c0-.024,0-.047,0-.069v-.039a1.3,1.3,0,0,0-.411-.949h2.058a1.31,1.31,0,0,0-.414.949v.211Zm13.969,5.816a4.745,4.745,0,0,1-1.171,1.592,5.254,5.254,0,0,1-1.1.739,6.627,6.627,0,0,1-.662.288,6.464,6.464,0,0,1-1.965.354h-4.328a.943.943,0,0,0,.119-.12.061.061,0,0,0,.016-.014.113.113,0,0,0,.021-.029.953.953,0,0,0,.114-.139.87.87,0,0,0,.125-.419c0-.055.011-.112.011-.174v-8.139c0-.061-.006-.119-.011-.175a.863.863,0,0,0-.125-.421,1.216,1.216,0,0,0-.114-.141c-.006-.006-.013-.019-.021-.03a.059.059,0,0,0-.016-.01,1.335,1.335,0,0,0-.119-.119h4.5a5.884,5.884,0,0,1,2.115.362c.111.042.215.088.318.132a4.509,4.509,0,0,1,1.311.876,4.35,4.35,0,0,1,1.044,1.548,5.194,5.194,0,0,1,.367,1.974,4.885,4.885,0,0,1-.428,2.064m9.136,2.965h-7.447a1.6,1.6,0,0,0,.233-.221c0-.006,0-.011.009-.018a.638.638,0,0,0,.114-.209s0-.012,0-.018a1.773,1.773,0,0,0,.067-.5v-8a1.735,1.735,0,0,0-.067-.493c0-.006,0-.014,0-.019a.643.643,0,0,0-.114-.209.07.07,0,0,1-.009-.014,1.385,1.385,0,0,0-.233-.226h7.166l.253,1.4a3.456,3.456,0,0,0-.791-.268,7.493,7.493,0,0,0-.884-.142c-.3-.032-.61-.047-.921-.051s-.621-.008-.926-.008c-.2,0-.447.008-.749.019s-.568.032-.791.063v3.158a32.564,32.564,0,0,0,3.451-.114l.226,1.226a1.972,1.972,0,0,0-1.176-.3h-2.5v3.923c.223.027.486.047.791.061s.553.02.749.02c.306,0,.611,0,.926-.008s.62-.024.921-.054.631-.086.918-.144a7.374,7.374,0,0,0,1.038-.264Zm11.254-1.367a2.848,2.848,0,0,1-.836.953,3.755,3.755,0,0,1-1.193.555,5.2,5.2,0,0,1-1.378.179c-.206,0-.461-.013-.756-.04a7.571,7.571,0,0,1-.9-.133,5.6,5.6,0,0,1-.851-.249,1.515,1.515,0,0,1-.618-.395.757.757,0,0,1-.114-.355,4.307,4.307,0,0,1-.039-.545c-.008-.195-.008-.389,0-.579s.01-.347.016-.466a5.6,5.6,0,0,0,.646.776,3.884,3.884,0,0,0,.717.57,2.789,2.789,0,0,0,.83.347,3.927,3.927,0,0,0,.984.118,3.218,3.218,0,0,0,.732-.084,1.949,1.949,0,0,0,.635-.257,1.35,1.35,0,0,0,.616-1.188,1.5,1.5,0,0,0-.356-.951,5.38,5.38,0,0,0-.9-.864c-.364-.282-.752-.563-1.167-.845a13.109,13.109,0,0,1-1.166-.883,4.894,4.894,0,0,1-.9-.985,2.133,2.133,0,0,1-.029-2.316,2.545,2.545,0,0,1,.839-.759,3.789,3.789,0,0,1,1.126-.41,6.223,6.223,0,0,1,1.193-.119c.186,0,.4.01.627.033s.467.054.706.094.463.089.685.148a2.8,2.8,0,0,1,.539.2l.148,1.608a3.1,3.1,0,0,0-1.077-.8,3.55,3.55,0,0,0-1.536-.327,3.592,3.592,0,0,0-.593.054,1.846,1.846,0,0,0-.545.181,1.125,1.125,0,0,0-.395.349.91.91,0,0,0-.154.544,1.276,1.276,0,0,0,.352.863,5.379,5.379,0,0,0,.886.769c.353.251.734.5,1.148.759a9.381,9.381,0,0,1,1.144.837,4.705,4.705,0,0,1,.884,1,2.246,2.246,0,0,1,.355,1.246,2.807,2.807,0,0,1-.316,1.366m8.961,1.367a.3.3,0,0,0,.219-.26.92.92,0,0,0-.109-.444l-1.089-2.48c-.3-.027-.621-.048-.968-.054s-.674-.014-.976-.014c-.318,0-.645,0-.986.014s-.671.027-1,.054L255,212.964a2.374,2.374,0,0,0-.2.64.372.372,0,0,0,.2.334h-1.877a1.779,1.779,0,0,0,.669-.879l3.22-7.905a3.966,3.966,0,0,0,.158-.429,1.042,1.042,0,0,0,.032-.184.684.684,0,0,0-.1-.3.381.381,0,0,0-.294-.222h2.176l3.878,9.026a2.58,2.58,0,0,0,.338.589.918.918,0,0,0,.368.3Zm11.386,0H264.8a1.31,1.31,0,0,0,.411-.95v-8.022a1.316,1.316,0,0,0-.349-.887c-.024-.021-.046-.041-.073-.061h2.785c-.024.016-.043.034-.065.051a1.317,1.317,0,0,0-.361.9v7.959q.334.041.786.061c.306.012.556.02.752.02.307,0,.611,0,.923-.008s.624-.024.926-.054.6-.082.885-.14a9.774,9.774,0,0,0,1.046-.268Zm7.749,0-.016-.879a3.676,3.676,0,0,1-1.287.893,3.925,3.925,0,0,1-1.526.306,4.233,4.233,0,0,1-1.52-.254,2.949,2.949,0,0,1-1.117-.732,3.1,3.1,0,0,1-.691-1.161,4.628,4.628,0,0,1-.236-1.522v-5.6c0-.015,0-.027,0-.041a1.33,1.33,0,0,0-.339-.863c-.027-.024-.057-.046-.086-.069h2.765a1.317,1.317,0,0,0-.414.949v0a.113.113,0,0,1,0,.024v5.039a7.493,7.493,0,0,0,.081,1.079,2.913,2.913,0,0,0,.311.974,1.818,1.818,0,0,0,1.724.974,2.334,2.334,0,0,0,.944-.186,2.563,2.563,0,0,0,.742-.477,2.135,2.135,0,0,0,.486-.632,1.486,1.486,0,0,0,.176-.675v-6.082a1.367,1.367,0,0,0-.018-.224,1.008,1.008,0,0,0-.055-.256.823.823,0,0,0-.129-.261,1.263,1.263,0,0,0-.241-.248H282.3a.785.785,0,0,0-.341.443,2.03,2.03,0,0,0-.074.518v3.3h.006v4.709a1.3,1.3,0,0,0,.382.923c.014.008.026.019.041.027Zm13.369-2.965a4.77,4.77,0,0,1-1.169,1.592,5.334,5.334,0,0,1-1.1.739,7.075,7.075,0,0,1-.661.288,6.487,6.487,0,0,1-1.965.354h-4.329a1.117,1.117,0,0,0,.119-.12.156.156,0,0,0,.016-.014l.02-.029a1,1,0,0,0,.114-.139.886.886,0,0,0,.125-.419c.005-.055.01-.112.01-.174v-8.139c0-.061,0-.119-.01-.175a.879.879,0,0,0-.125-.421,1.294,1.294,0,0,0-.114-.141.1.1,0,0,1-.02-.03l-.016-.01c-.039-.043-.08-.084-.119-.119h4.5a5.913,5.913,0,0,1,2.116.362c.108.042.213.088.315.132a4.512,4.512,0,0,1,1.312.876,4.4,4.4,0,0,1,1.045,1.548,5.221,5.221,0,0,1,.366,1.974,4.863,4.863,0,0,1-.429,2.064" transform="translate(-32.179 -23.627)" fill="#656565"/>
    <path id="Trazado_2707" data-name="Trazado 2707" d="M343.083,216.114a14.256,14.256,0,0,0,1.428-.065,3.545,3.545,0,0,0,.761-.144,2.924,2.924,0,0,0,1.181-.772,3.261,3.261,0,0,0,.627-1.091,4,4,0,0,0,.221-1.346,6.6,6.6,0,0,0-.206-1.607,4.985,4.985,0,0,0-.634-1.5,3.472,3.472,0,0,0-1.119-1.094,2.623,2.623,0,0,0-.9-.344c-.388-.039-.839-.059-1.363-.059-.256,0-.509,0-.756.007-.2.006-.4.012-.417.018v7.972c.023.009.221.017.414.024.25,0,.5.006.759.006" transform="translate(-87.664 -26.744)" fill="#656565"/>
  </g>
</svg>
