<svg xmlns="http://www.w3.org/2000/svg" xmlns:xlink="http://www.w3.org/1999/xlink" width="93" height="32" viewBox="0 0 93 32">
  <defs>
    <clipPath id="clip-Frontaly-positivo">
      <rect width="93" height="32"/>
    </clipPath>
  </defs>
  <g id="Frontaly-positivo" clip-path="url(#clip-Frontaly-positivo)">
    <rect width="93" height="32" fill="#fff"/>
    <g id="Grupo_38" data-name="Grupo 38" transform="translate(-100.805 -195.522)">
      <g id="Grupo_36" data-name="Grupo 36">
        <g id="Grupo_24" data-name="Grupo 24" transform="translate(-826.778 -514.579)">
          <path id="Trazado_34" data-name="Trazado 34" d="M401.879,181.344s4.367-7.692-3.79-9.806-27.626-16.947-40.154-11.978-8.192,25.2,5.122,28.926S394.853,190.79,401.879,181.344Z" transform="translate(577.405 551.554)" fill="#f1f1f1"/>
          <g id="Grupo_7" data-name="Grupo 7" transform="translate(927.583 710.101)">
            <path id="Trazado_2" data-name="Trazado 2" d="M85.684,75.592c0-.023.022-.058.068-.105q.982-1.471,2.016-3.015t2.118-2.98q1.084-1.436,2.185-2.7a16.991,16.991,0,0,1,2.2-2.139,8.692,8.692,0,0,1,2.152-1.3,3.338,3.338,0,0,1,2.067-.176,1.436,1.436,0,0,1,1.186,1.332,4.741,4.741,0,0,1-.83,2.77,18.891,18.891,0,0,1-3.135,3.82,38.045,38.045,0,0,1-5.727,4.487,5.048,5.048,0,0,1,1.8.35,3.119,3.119,0,0,1,1.084.683q.339.368.2.666t-.779.3H87.649l-9.42,15a3.365,3.365,0,0,1-.983.859,2.141,2.141,0,0,1-1.051.333h-.983q-.474,0-.542-.35a1.111,1.111,0,0,1,.3-.841q1.728-2.8,3.423-5.539.711-1.157,1.508-2.419t1.576-2.506q.78-1.244,1.508-2.4t1.372-2.138a2.992,2.992,0,0,1-1.389-.368,2.434,2.434,0,0,1-.813-.684.675.675,0,0,1-.119-.648q.119-.3.694-.3h2.949ZM98.019,65.074q-.2-.35-.728-.052a6.231,6.231,0,0,0-1.254,1.034,22.805,22.805,0,0,0-1.559,1.771q-.831,1.034-1.66,2.156t-1.576,2.208q-.746,1.088-1.288,1.858a19.683,19.683,0,0,0,1.8-1.245q.982-.753,1.948-1.63t1.847-1.788a17.628,17.628,0,0,0,1.491-1.735,7.474,7.474,0,0,0,.9-1.507A1.27,1.27,0,0,0,98.019,65.074Z" transform="translate(-74.66 -63.092)" fill="#ff662a"/>
            <path id="Trazado_3" data-name="Trazado 3" d="M126.767,103.042a2.15,2.15,0,0,1,.712-.457.867.867,0,0,1,.542-.051.293.293,0,0,1,.187.339,1.478,1.478,0,0,1-.356.711,11.113,11.113,0,0,1-5.32,3.643,5.365,5.365,0,0,1-2.084.254q-.864-.1-.965-.542a1.286,1.286,0,0,1,.288-.847q.356-.575.864-1.27t1.067-1.372q.559-.678.9-1.153a4.277,4.277,0,0,0-1.305.661,16.013,16.013,0,0,0-1.542,1.219q-.78.7-1.508,1.474a13.651,13.651,0,0,0-1.2,1.457q-.475.678-.881,1.271t-.711,1.033q-.373.508-.644.916a3.325,3.325,0,0,1-.983.83,2.182,2.182,0,0,1-1.051.322h-.983q-.474,0-.542-.339a1.057,1.057,0,0,1,.3-.813l6.811-9.658a2.752,2.752,0,0,1,.949-.813,2.279,2.279,0,0,1,1.051-.306h.983q.475,0,.559.322a.969.969,0,0,1-.288.8l-1.186,1.593a15.793,15.793,0,0,1,2.067-1.541,12.864,12.864,0,0,1,1.847-.966,4.584,4.584,0,0,1,1.423-.373,1.071,1.071,0,0,1,.831.2,1.09,1.09,0,0,1,.034,1.3,9.22,9.22,0,0,1-1.118,1.712q-.712.881-1.423,1.66a4.35,4.35,0,0,0-.847,1.152,7.161,7.161,0,0,0,1.88-.948A13.951,13.951,0,0,0,126.767,103.042Z" transform="translate(-100.457 -88.108)" fill="#ff662a"/>
            <path id="Trazado_4" data-name="Trazado 4" d="M164.946,100.675a2.531,2.531,0,0,1,.61,1.542,4.962,4.962,0,0,1-.339,2.05,10.37,10.37,0,0,1-1.22,2.3,13.264,13.264,0,0,1-2,2.27,13.47,13.47,0,0,1-2.389,1.813,10.294,10.294,0,0,1-2.355,1.051,5.422,5.422,0,0,1-2.067.221,2.231,2.231,0,0,1-1.491-.712,2.35,2.35,0,0,1-.627-1.542,5.186,5.186,0,0,1,.356-2.05,10.787,10.787,0,0,1,1.2-2.3A15.516,15.516,0,0,1,159,101.2a10.22,10.22,0,0,1,2.372-1.051,5.2,5.2,0,0,1,2.067-.2A2.426,2.426,0,0,1,164.946,100.675Zm-3.422,5.964a13.085,13.085,0,0,0,1.084-1.66,7.685,7.685,0,0,0,.644-1.525,3.392,3.392,0,0,0,.153-1.237,1.044,1.044,0,0,0-.356-.763,1.1,1.1,0,0,0-.864-.136,3.332,3.332,0,0,0-1.152.508,9.942,9.942,0,0,0-1.322,1.051,12.4,12.4,0,0,0-2.406,3.151,8.406,8.406,0,0,0-.626,1.508,3.274,3.274,0,0,0-.153,1.22,1.04,1.04,0,0,0,.356.762,1.09,1.09,0,0,0,.864.136,3.468,3.468,0,0,0,1.152-.492,8.238,8.238,0,0,0,1.3-1.033A12.438,12.438,0,0,0,161.524,106.639Z" transform="translate(-129.078 -88.479)" fill="#ff662a"/>
            <path id="Trazado_5" data-name="Trazado 5" d="M198.449,100.039a3.044,3.044,0,0,1,1.457.067.88.88,0,0,1,.61.865,4.033,4.033,0,0,1-.593,1.864,20.455,20.455,0,0,1-2.151,3.1,11.254,11.254,0,0,0-1.135,1.525,5.589,5.589,0,0,0-.475.966.728.728,0,0,0-.051.492.3.3,0,0,0,.2.169q.338.1,1.135-.44a16.158,16.158,0,0,0,1.762-1.424q.966-.88,1.949-1.9t1.66-1.864a2.827,2.827,0,0,1,.8-.694c.215-.1.374-.1.474,0a.588.588,0,0,1,.119.492,1.679,1.679,0,0,1-.3.745q-.238.34-.8,1.017t-1.321,1.491q-.762.813-1.661,1.694t-1.813,1.627a17.6,17.6,0,0,1-1.813,1.305,4.868,4.868,0,0,1-1.609.694,2.472,2.472,0,0,1-1.66-.136,1.415,1.415,0,0,1-.762-1.1,3.94,3.94,0,0,1,.339-1.949,11.143,11.143,0,0,1,1.644-2.711q1.423-1.8,2.084-2.626t.288-1q-.3-.17-1.271.475a21.669,21.669,0,0,0-2.185,1.711q-1.22,1.067-2.456,2.372a22.484,22.484,0,0,0-2.05,2.456.373.373,0,0,1-.136.17l-.881,1.254a3.331,3.331,0,0,1-.983.83,2.186,2.186,0,0,1-1.051.322h-.983q-.474,0-.542-.339a1.057,1.057,0,0,1,.3-.813l6.811-9.657a2.748,2.748,0,0,1,.949-.813,2.276,2.276,0,0,1,1.051-.306h.983q.475,0,.559.322a.969.969,0,0,1-.288.8l-1.22,1.728s1.712-1.339,2.558-1.847A6.587,6.587,0,0,1,198.449,100.039Z" transform="translate(-150.61 -88.524)" fill="#ff662a"/>
            <path id="Trazado_6" data-name="Trazado 6" d="M238.874,72.868q.814,0,2.542-.017t3.9-.051l1.457-1.965a3.14,3.14,0,0,1,.949-.8,2.188,2.188,0,0,1,1.051-.321h.983q.474,0,.559.321a.97.97,0,0,1-.288.8c-.045.045-.2.243-.458.592l-.966,1.305q1.694,0,3.355-.017t3.066-.034q1.406-.017,2.439-.034t1.508-.016a3.56,3.56,0,0,1,1.61.306,3.686,3.686,0,0,1,1.169.762.841.841,0,0,1,.305.8c-.067.249-.385.373-.948.373q-.508,0-1.983.068t-3.49.169q-2.017.1-4.372.2l-4.693.2q-1.051,1.458-2.2,3.051T242.2,81.594q-1.017,1.441-1.779,2.559t-1.068,1.592a4.884,4.884,0,0,0-.678,1.475q-.067.458.17.525.34.1,1.135-.44a16.065,16.065,0,0,0,1.762-1.424q.966-.88,1.949-1.9t1.661-1.864a2.7,2.7,0,0,1,.813-.694q.339-.152.492,0a.552.552,0,0,1,.1.492,2.155,2.155,0,0,1-.287.745q-.238.34-.8,1.017t-1.321,1.491q-.764.813-1.661,1.694a23.969,23.969,0,0,1-1.83,1.627,20.513,20.513,0,0,1-1.812,1.3,4.664,4.664,0,0,1-1.627.694,2.292,2.292,0,0,1-1.559-.1,1.406,1.406,0,0,1-.694-.949,3.287,3.287,0,0,1,.051-1.508,6.983,6.983,0,0,1,.711-1.779q.238-.408,1-1.542T238.738,82q1.05-1.474,2.237-3.151t2.271-3.2q-2.306.1-4.016.17t-2.253.067q-.881.034-.983-.44a1.347,1.347,0,0,1,.272-1.034,3.947,3.947,0,0,1,1.1-1.05A2.656,2.656,0,0,1,238.874,72.868Z" transform="translate(-185.599 -67.764)" fill="#ff662a"/>
            <path id="Trazado_7" data-name="Trazado 7" d="M260.383,103.718a17.7,17.7,0,0,1,2.982-2.407,9.953,9.953,0,0,1,2.644-1.2,4.856,4.856,0,0,1,2.17-.136,3.232,3.232,0,0,1,1.559.729,2.685,2.685,0,0,1,.846-.576,2.255,2.255,0,0,1,.882-.2h.983q.474,0,.559.322a.969.969,0,0,1-.288.8c-.092.114-.305.385-.645.813s-.717.944-1.135,1.541-.853,1.22-1.3,1.864-.836,1.237-1.152,1.779a5.08,5.08,0,0,0-.729,1.475q-.085.458.187.525.338.1,1.135-.44a16.214,16.214,0,0,0,1.762-1.424q.966-.88,1.948-1.9t1.695-1.864a2.508,2.508,0,0,1,.762-.694c.214-.1.373-.1.475,0a.588.588,0,0,1,.118.492,1.671,1.671,0,0,1-.3.745q-.238.339-.779,1.017t-1.3,1.491q-.762.813-1.677,1.694t-1.847,1.627a20.567,20.567,0,0,1-1.813,1.3,4.66,4.66,0,0,1-1.626.694,2.372,2.372,0,0,1-1.372-.05,1.357,1.357,0,0,1-.746-.695,2.309,2.309,0,0,1-.17-1.152,5.037,5.037,0,0,1,.356-1.457q-.61.576-1.321,1.186a14.6,14.6,0,0,1-1.457,1.1,9.236,9.236,0,0,1-1.508.813,3.7,3.7,0,0,1-1.441.322,1.747,1.747,0,0,1-1.457-.644,2.374,2.374,0,0,1-.407-1.745,6.836,6.836,0,0,1,.915-2.575A14.661,14.661,0,0,1,260.383,103.718Zm1.627,1.355a7.726,7.726,0,0,0-1.237,1.812,3.448,3.448,0,0,0-.406,1.491.632.632,0,0,0,.508.695,2.464,2.464,0,0,0,1.541-.576,9.5,9.5,0,0,0,1.627-1.27q.88-.829,1.745-1.762t1.627-1.847q.763-.915,1.237-1.525l.373-.474a2.42,2.42,0,0,0-1.745-.237,6.315,6.315,0,0,0-1.931.78,11.7,11.7,0,0,0-1.847,1.372A14.4,14.4,0,0,0,262.011,105.074Z" transform="translate(-200.994 -88.476)" fill="#ff662a"/>
            <path id="Trazado_8" data-name="Trazado 8" d="M320.542,64.307q-.068.1-.881,1.237t-2.017,2.813q-1.2,1.677-2.626,3.694L312.308,75.9q-1.287,1.829-2.27,3.254t-1.288,1.965a5.062,5.062,0,0,0-.728,1.475q-.086.458.186.525.339.1,1.152-.44a15.006,15.006,0,0,0,1.779-1.424q.967-.88,1.949-1.9t1.66-1.864a2.507,2.507,0,0,1,.763-.694q.321-.152.474,0a.589.589,0,0,1,.118.492,1.891,1.891,0,0,1-.271.745q-.237.339-.8,1.017t-1.322,1.491q-.763.813-1.66,1.694a24.209,24.209,0,0,1-1.83,1.627,20.567,20.567,0,0,1-1.813,1.3,4.669,4.669,0,0,1-1.627.694,2.265,2.265,0,0,1-1.542-.1,1.394,1.394,0,0,1-.711-.949A3.167,3.167,0,0,1,304.6,83.3a7.471,7.471,0,0,1,.728-1.779q.2-.34.8-1.237t1.44-2.135q.847-1.237,1.865-2.711t2.066-2.966q1.051-1.491,2.05-2.914t1.8-2.542q.8-1.118,1.321-1.847t.626-.864a3.345,3.345,0,0,1,.983-.83,2.191,2.191,0,0,1,1.051-.322h.983c.316,0,.5.114.543.339A1.058,1.058,0,0,1,320.542,64.307Z" transform="translate(-233.793 -63.136)" fill="#ff662a"/>
            <path id="Trazado_9" data-name="Trazado 9" d="M330.05,119.689a.621.621,0,0,1-.711.373,1.589,1.589,0,0,1-.813-.509A2.3,2.3,0,0,1,328,118.52a1.763,1.763,0,0,1,.152-1.237,7.689,7.689,0,0,1,.712-1.185q.576-.848,1.406-1.983t1.847-2.474q1.016-1.338,2.034-2.626a20.933,20.933,0,0,1-2.322,1.847,5.7,5.7,0,0,1-2.084.965,2.207,2.207,0,0,1-1.525-.1,1.407,1.407,0,0,1-.7-.949,3.3,3.3,0,0,1,.051-1.508,6.417,6.417,0,0,1,.745-1.779q.373-.678,1.034-1.678t1.339-1.965q.677-.966,1.254-1.745t.779-1.016a2.753,2.753,0,0,1,.949-.813,2.277,2.277,0,0,1,1.05-.306h.983q.474,0,.559.322a.972.972,0,0,1-.288.8l-.644.813q-.508.643-1.135,1.541t-1.3,1.864q-.678.966-1.185,1.779a4.627,4.627,0,0,0-.712,1.475q-.068.458.2.525.3.1,1.051-.389a15.975,15.975,0,0,0,1.661-1.288q.914-.8,1.863-1.779t1.661-1.83q.779-1.118,1.3-1.847a10.564,10.564,0,0,1,.661-.865,2.755,2.755,0,0,1,.948-.813,2.281,2.281,0,0,1,1.051-.306h.983q.474,0,.542.322a1.036,1.036,0,0,1-.3.8q-.1.1-.661.865T340.488,104q-.915,1.288-2.118,3.033t-2.559,3.778q-1.355,2.033-2.829,4.287T330.05,119.689Z" transform="translate(-250.009 -88.08)" fill="#ff662a"/>
          </g>
        </g>
      </g>
    </g>
  </g>
</svg>
