<svg xmlns="http://www.w3.org/2000/svg" width="56.395" height="56.396" viewBox="0 0 56.395 56.396"><defs><style>.a{fill:#64b0ad;}</style></defs><g transform="translate(-0.003)"><path class="a" d="M53.3,3.1A10.183,10.183,0,0,0,45.825,0H10.577A10.187,10.187,0,0,0,3.105,3.1,10.186,10.186,0,0,0,0,10.574V45.821a10.187,10.187,0,0,0,3.1,7.472,10.186,10.186,0,0,0,7.472,3.1H45.824A10.593,10.593,0,0,0,56.4,45.821V10.574A10.187,10.187,0,0,0,53.3,3.1ZM17.186,47.216H8.7V21.735h8.481V47.216Zm-.771-30.2a4.83,4.83,0,0,1-3.488,1.267H12.89a4.667,4.667,0,0,1-3.4-1.267,4.2,4.2,0,0,1-1.3-3.139,4.132,4.132,0,0,1,1.34-3.158A4.888,4.888,0,0,1,13,9.472a4.692,4.692,0,0,1,3.415,1.248,4.34,4.34,0,0,1,1.322,3.158A4.175,4.175,0,0,1,16.415,17.018ZM47.7,47.216H39.215V33.6q0-5.764-4.259-5.764a4.154,4.154,0,0,0-2.717.9,5.65,5.65,0,0,0-1.652,2.185,6.057,6.057,0,0,0-.257,2.055V47.216H21.849q.11-23.057,0-25.481H30.33v3.6a8.518,8.518,0,0,1,7.6-4.185,9.192,9.192,0,0,1,7.086,2.9q2.68,2.9,2.68,8.554V47.216h0Z"/></g></svg>