<svg xmlns="http://www.w3.org/2000/svg" width="178.654" height="178.654" viewBox="0 0 178.654 178.654"><defs><style>.a{fill:#fff;}</style></defs><path class="a" d="M48,448h5.763v5.763H48Zm0,0" transform="translate(-30.711 -286.635)"/><path class="a" d="M80,448h5.763v5.763H80Zm0,0" transform="translate(-51.185 -286.635)"/><path class="a" d="M112,448h5.763v5.763H112Zm0,0" transform="translate(-71.659 -286.635)"/><path class="a" d="M384,448h23.052v5.763H384Zm0,0" transform="translate(-245.687 -286.635)"/><path class="a" d="M172.891,149.839V54.749a14.425,14.425,0,0,0-14.408-14.408H144.076V109.5H129.668a40.026,40.026,0,0,0-3.948-17.289h12.593V34.578h-46.1V69.3c-.957-.069-1.908-.146-2.882-.146A40.385,40.385,0,0,0,48.986,109.5H34.578V28.815h109.5v5.763h5.763V0H28.815V40.341H20.171A14.425,14.425,0,0,0,5.763,54.749v95.09H0v14.408a14.425,14.425,0,0,0,14.408,14.408H164.246a14.425,14.425,0,0,0,14.408-14.408V149.839ZM158.483,46.1a8.656,8.656,0,0,1,8.645,8.645v95.09h-5.763V57.63a5.769,5.769,0,0,0-5.763-5.763h-5.763V46.1ZM97.971,40.341H132.55v46.1H122.387A40.406,40.406,0,0,0,97.971,70.113ZM89.327,74.919A34.556,34.556,0,0,1,118.062,128.7a14.387,14.387,0,0,0-10.322-12.826l-9.769-2.789v-.77a14.422,14.422,0,0,0,5.763-11.466V95.686c0-7.743-5.766-14.309-13.126-14.949A14.408,14.408,0,0,0,74.919,95.09v5.763a14.422,14.422,0,0,0,5.763,11.466v.77l-9.769,2.789A14.378,14.378,0,0,0,60.592,128.7,34.556,34.556,0,0,1,89.327,74.919ZM85.013,108.29a8.553,8.553,0,0,1-4.331-7.437V95.09a8.648,8.648,0,0,1,9.428-8.609c4.408.383,7.861,4.425,7.861,9.206v5.166a8.553,8.553,0,0,1-4.331,7.437l-1.432.833v8.31l13.949,3.989a8.62,8.62,0,0,1,5.718,5.365h-45.1a8.608,8.608,0,0,1,5.718-5.365l13.949-3.989v-8.31Zm30.014,24.259a34.415,34.415,0,0,1-51.4,0ZM144.076,5.763V23.052H34.578V5.763ZM11.526,54.749A8.656,8.656,0,0,1,20.171,46.1h8.645v5.763H23.052a5.769,5.769,0,0,0-5.763,5.763v92.208H11.526Zm161.365,109.5a8.656,8.656,0,0,1-8.645,8.645H14.408a8.656,8.656,0,0,1-8.645-8.645V155.6H65.131a22.751,22.751,0,0,0,15.059,5.763H98.47a22.751,22.751,0,0,0,15.059-5.763h36.31v-5.763H111.186l-.844.844A16.909,16.909,0,0,1,98.467,155.6H80.187a16.91,16.91,0,0,1-11.875-4.919l-.844-.844H23.052V57.63h5.763v57.63H49.447a40.286,40.286,0,0,0,79.759,0h20.632V57.63H155.6V155.6h17.289Zm0,0"/><path class="a" d="M112,32h5.763v5.763H112Zm0,0" transform="translate(-71.659 -20.474)"/><path class="a" d="M144,32h5.763v5.763H144Zm0,0" transform="translate(-92.133 -20.474)"/><path class="a" d="M176,32h5.763v5.763H176Zm0,0" transform="translate(-112.607 -20.474)"/><path class="a" d="M112,96h5.763v5.763H112Zm0,0" transform="translate(-71.659 -61.422)"/><path class="a" d="M144,96h34.578v5.763H144Zm0,0" transform="translate(-92.133 -61.422)"/><path class="a" d="M112,128h5.763v5.763H112Zm0,0" transform="translate(-71.659 -81.896)"/><path class="a" d="M144,128h34.578v5.763H144Zm0,0" transform="translate(-92.133 -81.896)"/><path class="a" d="M112,160h5.763v5.763H112Zm0,0" transform="translate(-71.659 -102.37)"/><path class="a" d="M144,160h34.578v5.763H144Zm0,0" transform="translate(-92.133 -102.37)"/></svg>