<svg xmlns="http://www.w3.org/2000/svg" width="172.633" height="172.633" viewBox="0 0 172.633 172.633"><defs><style>.a{fill:#fff;}</style></defs><g transform="translate(0)"><path class="a" d="M211.272,51.618,188.191,13.364a3.373,3.373,0,0,0-5.774,0L159.337,51.618a3.372,3.372,0,0,0,2.887,5.114H168.2V74.945H142.371A3.371,3.371,0,0,0,139,78.317v11.8H113.185a3.371,3.371,0,0,0-3.372,3.372v11.8H84a3.371,3.371,0,0,0-3.372,3.372v45.655A3.371,3.371,0,0,0,84,157.69H199.035a3.371,3.371,0,0,0,3.372-3.372V56.733h5.978a3.373,3.373,0,0,0,2.887-5.114Zm-123.9,60.416h22.444v38.912H87.368Zm29.188-15.173H139v54.085H116.556Zm29.187-15.173H168.2v69.258H145.743Zm53.292-31.7a3.372,3.372,0,0,0-3.372,3.372v97.585H174.945V56.733h6.082a3.372,3.372,0,0,0,0-6.743H168.2L185.3,21.634l17.109,28.355Zm0,0" transform="translate(-53.44 -7.778)"/><path class="a" d="M90.36,158.058H14.575V13.443l1.769,2.344a3.372,3.372,0,1,0,5.384-4.061L13.9,1.342a3.371,3.371,0,0,0-5.384,0L.68,11.729a3.371,3.371,0,0,0,5.384,4.059l1.768-2.344V158.058H3.92a3.372,3.372,0,0,0,0,6.743H7.831v3.912a3.372,3.372,0,0,0,6.743,0V164.8H90.36a3.372,3.372,0,1,0,0-6.743Zm0,0" transform="translate(0)"/><path class="a" d="M303.543,470.857a3.337,3.337,0,0,0-.31-.583,3.2,3.2,0,0,0-.419-.512,3.139,3.139,0,0,0-.512-.418,3.213,3.213,0,0,0-.583-.311,3.35,3.35,0,0,0-1.948-.192,3.511,3.511,0,0,0-.631.192,3.315,3.315,0,0,0-.58.311,3.139,3.139,0,0,0-.512.418,3.368,3.368,0,0,0-.421.512,3.255,3.255,0,0,0-.311.583,3.39,3.39,0,0,0-.192.631,3.34,3.34,0,0,0-.065.657,3.42,3.42,0,0,0,.065.661,3.536,3.536,0,0,0,.192.63,3.371,3.371,0,0,0,.311.581,3.433,3.433,0,0,0,.421.512,3.343,3.343,0,0,0,1.092.731,3.513,3.513,0,0,0,.631.192,3.3,3.3,0,0,0,.66.065,3.254,3.254,0,0,0,.659-.065,3.346,3.346,0,0,0,.63-.192,3.291,3.291,0,0,0,.583-.31,3.449,3.449,0,0,0,.512-.421,3.262,3.262,0,0,0,.419-.512,3.459,3.459,0,0,0,.31-.581,3.536,3.536,0,0,0,.192-.63,3.324,3.324,0,0,0,.067-.661,3.246,3.246,0,0,0-.067-.657A3.39,3.39,0,0,0,303.543,470.857Zm0,0" transform="translate(-196.898 -310.717)"/><path class="a" d="M393.757,454.055l-10.387-7.833a3.371,3.371,0,1,0-4.059,5.384l2.344,1.768H339a3.372,3.372,0,0,0,0,6.743h42.651l-2.344,1.769a3.371,3.371,0,1,0,4.059,5.384l10.387-7.833a3.37,3.37,0,0,0,0-5.383Zm0,0" transform="translate(-222.466 -295.318)"/><path class="a" d="M146.192,78.993a3.374,3.374,0,0,0-4.892-2.251l-10.473,5.634a3.372,3.372,0,1,0,3.2,5.939l2.1-1.133c-5.7,12.241-20.145,25.1-38.5,34.1a112.689,112.689,0,0,1-18.84,7.268,3.371,3.371,0,1,0,1.836,6.488,119.31,119.31,0,0,0,19.972-7.7c19.286-9.453,34.672-23.165,41.273-36.542l.274,1.257a3.372,3.372,0,0,0,6.589-1.438Zm0,0" transform="translate(-50.592 -50.601)"/></g></svg>