<svg xmlns="http://www.w3.org/2000/svg" width="170.654" height="170.654" viewBox="0 0 170.654 170.654"><defs><style>.a{fill:#fff;}</style></defs><g transform="translate(0 -0.002)"><g transform="translate(0 0.002)"><path class="a" d="M199.727,211.657a3.331,3.331,0,1,0,2.356-.977A3.358,3.358,0,0,0,199.727,211.657Z" transform="translate(-132.505 -140.459)"/><path class="a" d="M167.321,70.224H82.911a3.333,3.333,0,0,0,0,6.666h81.077v75.23H66.548a12.741,12.741,0,0,0-2.666-3.463,12.794,12.794,0,0,0,1.579-1.74h79.487a3.333,3.333,0,0,0,3.333-3.333,7.144,7.144,0,0,1,7.136-7.136,3.333,3.333,0,0,0,3.333-3.333V95.9a3.333,3.333,0,0,0-3.333-3.333,7.144,7.144,0,0,1-7.136-7.136,3.333,3.333,0,0,0-3.333-3.333H43.655a3.333,3.333,0,0,0-3.333,3.333,7.144,7.144,0,0,1-7.136,7.136A3.333,3.333,0,0,0,29.853,95.9v12.1H24.665v-18.4l12.7-12.7H56.247a3.333,3.333,0,1,0,0-6.666H44.031L69.26,45,81.067,56.8a3.333,3.333,0,0,0,4.714,0l27.17-27.17,4.784,4.784a3.333,3.333,0,0,0,5.624-1.7L129.14,3.992A3.333,3.333,0,0,0,125.215.067L96.49,5.848a3.333,3.333,0,0,0-1.7,5.625l3.886,3.887L83.424,30.613,71.616,18.8a3.333,3.333,0,0,0-4.714,0L46.874,38.833a3.333,3.333,0,1,0,4.714,4.714L69.26,25.876,81.067,37.683a3.333,3.333,0,0,0,4.714,0l19.967-19.967a3.333,3.333,0,0,0,0-4.714L103.9,11.157l17.715-3.565-3.565,17.714-2.743-2.743a3.333,3.333,0,0,0-4.714,0l-27.17,27.17L71.617,37.925a3.333,3.333,0,0,0-4.714,0L13.011,91.817,8.164,86.971,32.734,62.4a3.333,3.333,0,0,0-4.714-4.714L1.094,84.614a3.333,3.333,0,0,0,0,4.714l9.56,9.56a3.333,3.333,0,0,0,4.714,0L18,96.256v11.737H12.666a12.659,12.659,0,0,0-8.552,22,12.644,12.644,0,0,0,0,18.666,12.659,12.659,0,0,0,8.552,22H167.321a3.333,3.333,0,0,0,3.333-3.333V73.557A3.333,3.333,0,0,0,167.321,70.224Zm-130.8,28.6A13.852,13.852,0,0,0,46.582,88.759h95.44a13.852,13.852,0,0,0,10.062,10.062v31.368a13.851,13.851,0,0,0-10.062,10.062H67.958c.022-.306.038-.615.038-.927a12.634,12.634,0,0,0-4.113-9.333,12.659,12.659,0,0,0-8.552-22H36.52V98.821ZM6.666,120.659a6.006,6.006,0,0,1,6-6H55.329a6,6,0,0,1,0,12H12.666A6.006,6.006,0,0,1,6.666,120.659Zm0,18.665a6.006,6.006,0,0,1,6-6H55.329a6,6,0,0,1,0,12H12.666A6.006,6.006,0,0,1,6.666,139.324Zm14.666,24.665H12.666a6,6,0,0,1,0-12H55.329a6,6,0,0,1,0,12Zm142.656,0H66.481a12.578,12.578,0,0,0,1.487-5.2h96.021Z" transform="translate(0 -0.002)"/><path class="a" d="M375.045,340.2h4.748a3.333,3.333,0,1,0,0-6.666h-4.748a3.333,3.333,0,1,0,0,6.666Z" transform="translate(-247.817 -222.367)"/><path class="a" d="M247.113,325.777a17.756,17.756,0,1,0-17.754-17.756A17.775,17.775,0,0,0,247.113,325.777Zm0-28.847a11.09,11.09,0,1,1-11.088,11.09A11.1,11.1,0,0,1,247.113,296.93Z" transform="translate(-152.912 -193.517)"/><path class="a" d="M112.893,148.656a3.334,3.334,0,1,0-2.356-.977A3.344,3.344,0,0,0,112.893,148.656Z" transform="translate(-73.043 -94.664)"/></g></g></svg>