<svg xmlns="http://www.w3.org/2000/svg" width="186.548" height="179.07" viewBox="0 0 186.548 179.07"><defs><style>.a{fill:#fff;}</style></defs><g transform="translate(0 -10.262)"><g transform="translate(0 10.262)"><path class="a" d="M186.188,108.414A73.54,73.54,0,0,0,129,43.929V34.671a12.388,12.388,0,0,0-2.99-24.409H99.779a12.388,12.388,0,0,0-2.99,24.409v9.283A73.16,73.16,0,0,0,60.908,63.692a73.951,73.951,0,0,0-6.186,7.021c-.091-.007-.183-.014-.276-.014H28.481a3.644,3.644,0,0,0,0,7.287H49.763a73.041,73.041,0,0,0-6.465,14H3.644a3.644,3.644,0,1,0,0,7.287h37.6a74.082,74.082,0,0,0-1.808,14H23.319a3.644,3.644,0,0,0,0,7.287H39.547a73.974,73.974,0,0,0,2.275,14h-23.6a3.644,3.644,0,1,0,0,7.287h25.93a73.59,73.59,0,0,0,61.528,47.116q3.61.356,7.221.355a73.777,73.777,0,0,0,40.166-11.871,3.644,3.644,0,0,0-3.977-6.107A66.312,66.312,0,1,1,168.617,151.8a3.643,3.643,0,1,0,6.111,3.969A73.835,73.835,0,0,0,186.188,108.414ZM94.678,22.65a5.107,5.107,0,0,1,5.1-5.1h26.234a5.1,5.1,0,0,1,0,10.2H99.779A5.107,5.107,0,0,1,94.678,22.65Zm9.4,20.052V35.039h17.64v7.65A74.239,74.239,0,0,0,104.076,42.7Z" transform="translate(0 -10.262)"/><path class="a" d="M439.414,425.5a3.645,3.645,0,1,0,2.576,1.068A3.663,3.663,0,0,0,439.414,425.5Z" transform="translate(-276.994 -274.205)"/><path class="a" d="M211.394,144.609a56.522,56.522,0,1,0,56.522,56.522A56.586,56.586,0,0,0,211.394,144.609Zm0,105.757a49.235,49.235,0,1,1,49.235-49.235A49.291,49.291,0,0,1,211.394,250.366Z" transform="translate(-98.443 -95.659)"/><path class="a" d="M299.382,220.478l-18.047,18.046a11.293,11.293,0,0,0-10,0l-8.077-8.077A3.644,3.644,0,1,0,258.1,235.6l8.077,8.077a11.322,11.322,0,1,0,20.309,0l17.517-17.517h0l.529-.529a3.644,3.644,0,1,0-5.153-5.153Zm-23.048,32.235a4.035,4.035,0,1,1,4.035-4.035A4.04,4.04,0,0,1,276.334,252.714Z" transform="translate(-163.383 -143.206)"/><path class="a" d="M404.674,289.86H401.3a3.644,3.644,0,0,0,0,7.287h3.376a3.644,3.644,0,0,0,0-7.287Z" transform="translate(-252.767 -187.987)"/><path class="a" d="M200.1,289.616h-3.375a3.644,3.644,0,1,0,0,7.287H200.1a3.644,3.644,0,1,0,0-7.287Z" transform="translate(-122.731 -187.832)"/><path class="a" d="M303.767,193.482a3.644,3.644,0,0,0,3.644-3.644v-3.375a3.644,3.644,0,1,0-7.287,0v3.375A3.644,3.644,0,0,0,303.767,193.482Z" transform="translate(-190.771 -119.947)"/><path class="a" d="M303.523,387.393a3.644,3.644,0,0,0-3.644,3.644v3.375a3.644,3.644,0,0,0,7.287,0v-3.375A3.644,3.644,0,0,0,303.523,387.393Z" transform="translate(-190.616 -249.983)"/><path class="a" d="M3.644,351.44a3.644,3.644,0,1,0,2.576,6.22,3.644,3.644,0,0,0-2.576-6.22Z" transform="translate(0 -227.13)"/></g></g></svg>